<svg xmlns="http://www.w3.org/2000/svg" width="85" height="95" viewBox="0 0 213.8 237.75" enable-background="new 0 0 213.8 237.75"><g fill="#6d0d5a" fill-rule="evenodd" clip-rule="evenodd"><path d="M84.43 177.8c-5.22 6.17-8.53-4.58-10.2-8.93-4 0-8 0-12 0-1.58 3.16-3.14 6.32-3.45 10.74-1.84.32-3.62 0-4.56-1.08-.53-2.86 1.1-5.33 2.2-7.63 3.2-6.9 6.8-13.5 9.82-20.77-.24-1.04-1.1-1.44-1.64-2.18.93-1.18 1.8-2.88 4-2.37 2.27.53 3.38 5.22 4.37 7.65 3.36 8.36 7.14 18.23 11.46 24.57zm-20.56-12.55c2.98 0 5.94 0 8.92 0-1.3-3.75-2.7-7.4-4.38-10.74-1.5 3.6-3.03 7.17-4.55 10.75zM161.42 146.5c5.8-1.5 4.9 7.4-.56 6-2.74-.7-2.26-5.27.56-6zM113.73 155.6c8.14-.9 14.42 3.9 14.38 11.65-.02 5.14-3.04 9.55-7.1 11.64-6.98 3.6-15.47 0-17.83-5.84-3.57-8.92 2.8-16.6 10.56-17.46zm-6.37 15.65c.8 2.32 2.72 3.9 4.38 4.54 11.25 4.53 15.7-12.44 7.1-16.02-1.32-.54-3.98-.58-5.3-.37-4.8.8-8.17 6.07-6.18 11.85zM137.2 157.96c2.4-1.06 4.35-2.38 7.47-2.36 6.5.03 8.55 5.27 8.55 11.65 0 3.72-.8 8.13 1.27 11.1-1.18.9-3.63 1.8-5.46.9-2.26-4.94 2.3-15.46-2.2-18.92-2.55-2-6.97-.18-9.45 1.27.23 5.77-1.1 12.32 1.1 16.74-1.02 1-3.2 1.63-5.12 1.1-.68-.74-.86-1.9-.9-2.9-.23-6.3 1.84-15.03-.55-20.4 2-.94 5.07-.54 5.28 1.82zM190.16 178.34c-1.34 1.36-5.43 2.16-5.46-.9-4.4 4.25-14 2.86-14.74-3.83-.76-6.92 6.62-10.33 14.56-9.1 1-4.64-4.47-6.47-8.2-4.72-1.48.7-1.52 1.96-2.9 2.37-.92-.6-1.57-1.05-1.63-2.2-.24-4.73 9.85-5.37 13.46-3.26 6.35 3.7 1 15.67 4.9 21.64zm-15.28-8.37c-3.62 6 6.88 7.98 9.64 3.82 0-1.94 0-3.9 0-5.83-3.9-.34-8.2-.36-9.64 2zM92.26 159.78c1.88-1.03 3.06-4.17 6.55-3.8 3.6.33 3.9 5.38.37 6.53-.84-4.28-5.7-.62-6.55 2-1.4 4.35.33 11.74 1.46 13.84-1.07 1.04-3.44 1.6-5.46 1.1-1.1-1.5-.82-3.9-.73-6 .23-5.6 1.18-12.37-.73-16.93 2.46-1.5 6.24.1 5.1 3.28zM164.33 156.5c1.33 6.8-1.43 16.25 1.45 21.84-1.08.97-3.28 1.64-5.27 1.1-1.7-2.32-.7-5.97-.54-9.47.2-4.72.15-9.6-1.1-12.92 1.3-.68 3.97-1.73 5.47-.54zM78.06 187.44c6.4-.96 11 2.8 10 9.3-1.22 8.1-13.35 9.7-16.55 2.9-2.52-5.4.68-11.3 6.56-12.2zm-1.1 13.84c4.33 1.66 8.48-1.27 8.38-6.2-.07-3.6-2.6-5.78-6.37-5.45-6.44.56-7.1 9.68-2 11.65zM122.1 187.8c.34.93-.06 1.6-.36 2.38-6.42-2.48-11.7 5.03-8 9.46 1.42 1.7 5.02 2.34 8.18 1.45.64-1.82-.24-4.27-.54-5.1.95-.24 1.6-1 2.73-.55.93 1.84 1.1 5.7-.35 7.27-.83.9-3.25 1.27-4.56 1.3-4.6.04-10.36-2.76-9.3-9.3.82-4.93 6.12-8.4 12.2-6.9zM97.36 196.73c1.74 1.83 3.1 4.05 5.64 5.1-2.64 6.07-5.58-4.5-9.83-4-.16 1.36.07 3.9.55 5.26-.8.28-1.9.85-2.9.36-1.07-4.68.73-11.53-.93-15.84 4.57-.23 9.54-.68 10.38 3.1.6 2.74-.74 5.1-2.92 6zm-4-6.92c-.4 1.73-.04 4.22-.37 6 5.2 1.72 6.64-7.8.35-6zM107 187.62c1.43 4.13-.7 11.4 1.1 15.47-.93.2-2 .87-3.1.36-1.05-4.25.84-11.22-.92-15.1.67-.54 1.88-1.14 2.92-.74zM129.92 187.8c1.02 4.1-.85 11.2.92 14.92-.53.73-2 1.14-3.1.74-1.06-4.5.75-11.15-.9-15.3.85-.4 2.16-1.02 3.08-.35zM147.77 188c.37 4.94-.4 10.18.18 15.1-.53.13-.9.44-1.28.73-3.97-3.38-6.87-7.82-10.54-11.47-.25 3.67.75 7.9-.2 11.1-1.03.5-2.1-.08-2.9-.37.88-3.32 2.4-11.7-.37-14.02 2.33-3.8 5.73 1.95 7.64 4.2 2.15 2.47 3.77 4.42 5.28 6-.1-3.92.4-8.4-.9-11.1.9-.6 2.2-.93 3.1-.2zM159.6 198.72c-1.83 0-3.65 0-5.46 0-.9 1.3-1.43 2.95-1.64 4.92-1.27.1-2.17-.15-2.55-.92 1.32-4.8 3.93-8.32 5.63-12.74.28-.78-1-.92-.54-1.26.2-.83.92-1.15 1.82-1.28 2.56 2.23 4.1 9.64 6.37 13.47.34.58 1.3 1.4 1.27 1.46-.02.46-1.2 1.27-1.63 1.28-2.15.07-2.46-3.1-3.28-4.92zm-4.56-2.18c1.55-.12 2.55.33 3.64-.2-.8-1.17-.9-3.07-2-3.98-.37 1.57-1.18 2.7-1.64 4.18zM168.7 187.8c.87 3.84-.2 8.77.18 13.3 1.66.38 4.4.27 5.64-.37.22.83.7 1.45.36 2.36-1.86 1-6.14.52-8.55.36-.5-4.6.77-11.27-.73-15.3 1.04-.3 2.07-1 3.1-.35zM82.44 65.52c-8.65-3.58-21.32-.17-28.4 3.27-4.75 2.3-8.84 5.28-12.37 8.54-7.3 6.74-12.6 16-22.75 19.3 10.98-2.17 16.1-12.1 23.84-18.38 7.57-6.16 18.08-11.12 31.85-10.2 3.3.22 6.26.96 8.57 2.55.96-.47 1.95-.94 3.08-1.26-2.6-2-6.9-2.33-11.1-2.73 4.26-1.04 10.7-.7 14.02.92 4.2-1.75 7.32-7.03 12.73-6.73 2.6.13 4.77 3 7.3.7-.9-1.2-2.5-2.36-3.47-3.8-5.9-8.94-.08-18.18 5.83-23.67 4.1-3.8 9.05-6.9 14.73-9.1 14-5.42 31.12-5.57 38.4-16 1.43-2.1 2.93-5.8 2.16-8.93 3.28 6.5 4.73 15.7 3.28 23.66-1.36 7.53-5.23 14.22-9.28 18.74-8.73 9.8-20.5 17.46-35.85 20.03 9.75.95 19.13 2.23 26.95 5.1 3.36-11.07 8.14-19.5 23.3-18.58 5.98.36 12.16 2.65 17.65 5.64 5.06 2.76 10.75 6.54 12.73 10.55 3.12 6.3-2.27 11.3-4.18 16.56-1.36 3.7-.8 8.72-2.2 11.66-.82 1.78-2.4 3.15-4 4.18 8.92 11.7 15.96 25.62 18.02 43.68 2.27 19.86-3.13 37.54-10.56 50.4-7.4 12.86-17.3 23.24-30.2 31.5-12.67 8.1-28.3 13.84-47.12 14.56-19.85.74-36.6-4.43-50.05-11.65-13.4-7.2-24.32-17.77-32.03-29.68-8.1-12.5-13.94-27.95-13.82-47.86.1-19.57 6.96-33.7 15.1-46.6-16.52 2.6-34.02-2.4-44.04-9.28-.03 0-.9.03-.36-.35 5.82 2.77 14 .5 18.2-2.55 7.3-5.32 11-14.62 16.92-21.48 6.25-7.25 15.1-12.3 25.3-12.92 10.54-.65 17.52 4.05 21.84 10.2zm41.48-24.2c4.54-4.23 9.3-7.48 15.1-10.2C151.1 25.5 163 20.58 167.25 8.57c.03-.3-.2-.45-.2 0-5.37 13.1-19.4 17.08-31.84 23.1-6.13 2.98-11.73 6.55-16.37 11.1-4.45 4.36-9.27 9.98-8.92 18.2 1.5-2.12 2.55-5.7 4.38-6.92-1.43 1.47-1.5 4.98-2.37 7.1-.27.7-1.7 2.03-1.27 2 1.5.1 3.3-.4 4.38-.17-1.85-9.87 4.02-17.1 8.92-21.65zM97 65.7c2.26-.52 4.7-.87 6.73-1.64-2.68-.76-5.2.26-6.74 1.63zm98.45 7.64c-.9-2.37-1.1-5.45-3.65-6.2-1.3 1.9-2.1 4.42-.54 6.4 1.27 1.6 5.5 2.03 3.28 4.72-1.33.73-3.02-.08-4.73 0-.62 1.8-1.5 4.3-1.27 6.36 2.34-.87 3.35-4.05 5.46-4.55.5 1.68-1.03 6.86 1.26 6.74 2.84-.15-.7-7.27 1.83-8.54 1.1.22 1.06 1.6 1.8 2.18 3.48-1.17 3.55-6.43-.18-7.28.77-1.75 2.3-5.7.18-7.1-2.63.95-2.4 4.76-3.45 7.28zM141.03 83.7c3.45-1.1 8.8-.25 11.65.2-1.35-2.55-1.7-6.08-1.64-10-9.08-3.2-20.15-5.34-32.4-4.75 9.94 2.38 16.15 8.48 22.4 14.56zm-46.6-9.45c7.56 1.55 12.2 6.03 13.3 14 7.5 2.23 12.85 6.57 14.92 14.2 1.96-8.34 6.77-13.85 13.83-17.1-7.9-9.15-25.4-14.84-42.04-11.1zm-4.36.9c-3.45.3-6.2 2.68-9.46 3.65C75.33 88.74 66.3 94.92 55.14 99c-10.35 13.32-19.1 28.17-19.1 51.14 0 16.1 4.72 29.1 10.92 39.67 6.28 10.73 14.85 19.5 24.56 26.22 10.08 6.96 22.23 12.2 36.4 14.37 14.72 2.26 30.96.57 44.05-4.2 23.94-8.72 42.4-26.68 50.77-50.58 4.2-12 5.72-29.4 2.2-43.87-2.58-10.5-6.5-18.62-11.84-26.2-1.08-1.52-4.05-6.3-5.83-6.9-1.74-.6-4.1-.28-6-.56-5.92-.88-10.7-2.77-15.47-4.02 3.73 5.46 9.46 16.32 6 24.94-1.68 4.22-5.24 7.13-9.83 8.56.7-2.73-2.32-3.24-3.8-4.38 3.55-1.04 8.3-.9 9.26-4.54-2.1-1.45-5.2.34-7.08.9.3-1.1.53-2.44 0-3.46-2.95-.54-4.8 1.48-6.56 2.74-.1 1.27 1.23 1.08.92 2.54-1.85 2.6-9.33-1.5-9.64 2.73 1.98.73 4.86-.57 6.36.2-1.54 3.25-5.93 3.65-7.1 7.28 6.2.98 6.95-6.03 10.38-7.83-.47 2.68-.35 5.78 2.36 5.82-3.86 3.1-7.23 7.24-13.64 7.1-6.24-.15-10.3-4.45-13.48-8.56-3.43-4.45-5.92-9.54-7.28-14.72-.53 4.83-2.4 9.66-4.55 14-2.57 5.18-5.67 10.88-10.2 13.1-6.18 3.07-11.86-2.26-16.37-3.63-4.06-1.23-9.46-.2-13.1-2.55-2.73-1.75-3.93-5.12-4.2-9.27-.4-6.4.86-12.78 3.1-19.1C81.5 94.2 88.16 85.3 104.1 87.52c-1.26-6-7.35-12.95-14-12.37zM89 129.22c-3.3.02-5.7 1.83-6.2 4.02 1.35 1.02 3.22-.35 4.9-.2 1.38 1 1.72 3.18 3.66 3.28 1.05.06 1.5-.9 2.9-.72.65.55.7 1.42 1.46 1.8 2.13 1.15 7.82.07 7.45-1.62-.32-1.6-3.46-.63-5.27-.73 1.53-5.3-4.72-3.4-6.37-1.63-.5-1.75-1.18-3.32-2.54-4.2z"/></g></svg>